<?xml version="1.0" encoding="iso-8859-1"?>
<!-- Generator: Adobe Illustrator 19.0.0, SVG Export Plug-In . SVG Version: 6.00 Build 0)  -->
<svg version="1.1" id="Capa_1" xmlns="http://www.w3.org/2000/svg" xmlns:xlink="http://www.w3.org/1999/xlink" x="0px" y="0px"
	 viewBox="0 0 477.867 477.867" style="enable-background:new 0 0 477.867 477.867;" xml:space="preserve">
<g>
	<g>
		<path d="M375.467,136.533c-53.333,0-110.933,51.661-136.533,77.534c-25.6-25.873-83.2-77.534-136.533-77.534
			c-64.119,0-102.4,38.281-102.4,102.4s38.281,102.4,102.4,102.4c53.333,0,110.933-51.661,136.533-77.534
			c25.6,25.873,83.2,77.534,136.533,77.534c64.12,0,102.4-38.281,102.4-102.4S439.586,136.533,375.467,136.533z M102.4,307.2
			c-45.295,0-68.267-22.972-68.267-68.267s22.972-68.267,68.267-68.267c37.547,0,87.381,42.308,113.118,68.267
			C189.833,264.926,140.1,307.2,102.4,307.2z M375.467,307.2c-37.547,0-87.381-42.308-113.118-68.267
			c25.6-25.975,75.418-68.267,113.118-68.267c45.295,0,68.267,22.972,68.267,68.267S420.762,307.2,375.467,307.2z"/>
	</g>
</g>
<g>
</g>
<g>
</g>
<g>
</g>
<g>
</g>
<g>
</g>
<g>
</g>
<g>
</g>
<g>
</g>
<g>
</g>
<g>
</g>
<g>
</g>
<g>
</g>
<g>
</g>
<g>
</g>
<g>
</g>
</svg>
