<?xml version="1.0" encoding="iso-8859-1"?>
<!-- Generator: Adobe Illustrator 19.0.0, SVG Export Plug-In . SVG Version: 6.00 Build 0)  -->
<svg version="1.1" id="Layer_1" xmlns="http://www.w3.org/2000/svg" xmlns:xlink="http://www.w3.org/1999/xlink" x="0px" y="0px"
	 viewBox="0 0 512 512" style="enable-background:new 0 0 512 512;" xml:space="preserve">
<g>
	<g>
		<path d="M229.744,0H59.077C26.449,0,0,26.449,0,59.077v170.667c0,3.625,2.939,6.564,6.564,6.564h223.18
			c3.625,0,6.564-2.939,6.564-6.564V6.564C236.308,2.939,233.368,0,229.744,0z M158.312,144.41h-20.466v20.466
			c0,10.875-8.817,19.692-19.692,19.692c-10.875,0-19.692-8.817-19.692-19.692V144.41H77.996c-10.875,0-19.692-8.817-19.692-19.692
			s8.817-19.692,19.692-19.692h20.466V84.56c0-10.875,8.817-19.692,19.692-19.692c10.875,0,19.692,8.817,19.692,19.692v20.466
			h20.466c10.875,0,19.692,8.817,19.692,19.692S169.187,144.41,158.312,144.41z"/>
	</g>
</g>
<g>
	<g>
		<path d="M452.923,0H282.256c-3.625,0-6.564,2.939-6.564,6.564v223.18c0,3.625,2.939,6.564,6.564,6.564h223.18
			c3.625,0,6.564-2.939,6.564-6.564V59.077C512,26.449,485.551,0,452.923,0z M433.862,144.41h-80.316
			c-10.875,0-19.692-8.817-19.692-19.692s8.816-19.692,19.692-19.692h80.316c10.875,0,19.692,8.817,19.692,19.692
			S444.738,144.41,433.862,144.41z"/>
	</g>
</g>
<g>
	<g>
		<path d="M229.744,275.692H6.564c-3.625,0-6.564,2.939-6.564,6.564v170.667C0,485.551,26.449,512,59.077,512h170.667
			c3.625,0,6.564-2.939,6.564-6.564v-223.18C236.308,278.632,233.368,275.692,229.744,275.692z M160.474,429.602
			c-7.689,7.689-20.157,7.693-27.849,0l-14.471-14.47l-14.47,14.471c-7.692,7.69-20.158,7.69-27.849,0
			c-7.69-7.689-7.69-20.158,0-27.849l14.47-14.473l-14.471-14.471c-7.689-7.689-7.689-20.158,0-27.849
			c7.69-7.691,20.158-7.691,27.849,0l14.471,14.47l14.47-14.471c7.69-7.689,20.16-7.689,27.849,0c7.691,7.689,7.691,20.158,0,27.849
			l-14.47,14.472l14.471,14.471C168.164,409.444,168.164,421.913,160.474,429.602z"/>
	</g>
</g>
<g>
	<g>
		<path d="M505.436,275.692h-223.18c-3.625,0-6.564,2.939-6.564,6.564v223.18c0,3.625,2.939,6.564,6.564,6.564h170.667
			C485.551,512,512,485.551,512,452.923V282.256C512,278.632,509.061,275.692,505.436,275.692z M433.861,435.371h-80.316
			c-10.875,0-19.692-8.817-19.692-19.692c0-10.875,8.817-19.692,19.692-19.692h80.316c10.875,0,19.692,8.817,19.692,19.692
			C453.553,426.554,444.736,435.371,433.861,435.371z M433.861,378.578h-80.316c-10.875,0-19.692-8.817-19.692-19.692
			c0-10.875,8.817-19.692,19.692-19.692h80.316c10.875,0,19.692,8.817,19.692,19.692
			C453.553,369.761,444.736,378.578,433.861,378.578z"/>
	</g>
</g>
<g>
</g>
<g>
</g>
<g>
</g>
<g>
</g>
<g>
</g>
<g>
</g>
<g>
</g>
<g>
</g>
<g>
</g>
<g>
</g>
<g>
</g>
<g>
</g>
<g>
</g>
<g>
</g>
<g>
</g>
</svg>
